<?xml version="1.0" encoding="UTF-8" standalone="no"?>
<!-- Created with Inkscape (http://www.inkscape.org/) -->

<svg
   xmlns:dc="http://purl.org/dc/elements/1.1/"
   xmlns:cc="http://creativecommons.org/ns#"
   xmlns:rdf="http://www.w3.org/1999/02/22-rdf-syntax-ns#"
   xmlns:svg="http://www.w3.org/2000/svg"
   xmlns="http://www.w3.org/2000/svg"
   xmlns:sodipodi="http://sodipodi.sourceforge.net/DTD/sodipodi-0.dtd"
   xmlns:inkscape="http://www.inkscape.org/namespaces/inkscape"
   width="93.206253mm"
   height="50.69952mm"
   viewBox="0 0 330.25838 179.64397"
   id="svg4255"
   version="1.1"
   inkscape:version="0.91 r13725"
   sodipodi:docname="arij-white.svg">
  <defs
     id="defs4257" />
  <sodipodi:namedview
     id="base"
     pagecolor="#ffffff"
     bordercolor="#666666"
     borderopacity="1.0"
     inkscape:pageopacity="0.0"
     inkscape:pageshadow="2"
     inkscape:zoom="4"
     inkscape:cx="161.72495"
     inkscape:cy="108.62391"
     inkscape:document-units="px"
     inkscape:current-layer="g4241"
     showgrid="false"
     inkscape:window-width="2560"
     inkscape:window-height="1314"
     inkscape:window-x="0"
     inkscape:window-y="60"
     inkscape:window-maximized="1"
     fit-margin-top="0"
     fit-margin-left="0"
     fit-margin-right="0"
     fit-margin-bottom="0" />
  <metadata
     id="metadata4260">
    <rdf:RDF>
      <cc:Work
         rdf:about="">
        <dc:format>image/svg+xml</dc:format>
        <dc:type
           rdf:resource="http://purl.org/dc/dcmitype/StillImage" />
        <dc:title></dc:title>
      </cc:Work>
    </rdf:RDF>
  </metadata>
  <g
     inkscape:label="Layer 1"
     inkscape:groupmode="layer"
     id="layer1"
     transform="translate(-180.58514,-351.11166)">
    <g
       transform="matrix(0.125,0,0,-0.125,158.06173,531.25073)"
       style="fill:#000000;stroke:none"
       id="g4247">
      <g
         transform="translate(-2001.3483,-1468.2022)"
         id="g4235">
        <g
           id="g4241">
          <g
             id="g4193"
             style="fill:#ffffff;fill-opacity:1">
            <path
               style="fill:#ffffff;fill-opacity:1"
               id="path4198"
               d="m 302.625,184.56404 -8.43276,0.0745 c -1.30431,0.0115 -2.59398,0.62753 -3.23612,1.10127 -2.56011,2.03357 -2.10913,3.16828 -1.52257,6.00431 0,0 5.64952,23.20911 8.69145,34.7559 11.375,44.125 12,41 -8.375,41 -13.17792,0.45688 -11.62521,-1.01158 -14.91253,6.02187 -2.99223,5.37939 -2.93599,9.01512 0.68247,11.07653 3.45577,1.24374 28.51843,0.48826 28.51843,0.48826 0,0 8.00673,-0.8612 9.87442,0.97343 2.69448,2.64679 7.83721,21.06487 7.83721,21.06487 l 6.71109,19.84605 c 1.42784,4.22245 3.421,4.19064 4.41792,4.23713 l 13.2291,0.004 10.47316,-0.0223 c 1.49463,-0.003 2.67083,-0.26422 3.40609,-1.24408 0,0 2.12824,-2.01159 0.58166,-6.73158 L 338.75,256.625 316.34258,188.06223 c -0.86657,-2.39236 -1.27961,-3.53738 -6.85751,-3.51981 z"
               inkscape:connector-curvature="0"
               sodipodi:nodetypes="cscccccccscsccscsccsc"
               transform="matrix(8,0,0,-8,0,4380)" />
            <path
               transform="translate(-9.9999999e-8,1.9999999e-5)"
               style="fill:#ffffff;stroke:none;fill-opacity:1"
               sodipodi:nodetypes="ccsccscsccccccccsccc"
               inkscape:connector-curvature="0"
               id="path4200"
               d="m 2723.2528,2897.9747 c -50.6729,-36.1383 1.1333,-98.2158 31.3933,-135.7219 18.8174,-23.8211 54.1606,-20.8565 103.2166,-20.75 L 3017,2741.8483 c 0,0 218.551,8.0168 306,-24.8483 77,-38 107,-88 107,-178 0,-126 -47.6627,-184.3373 -230.6627,-221.3373 l -102.12,-16.3575 c -13.1161,-2.1009 -24.7683,-6.5349 -21.0032,-17.7461 C 3091.2715,2253.3604 3148,2173 3148,2173 c 0,0 118,-181 167,-258 137.2528,-217.3792 94.7725,-185 261,-185 l 117.7041,-1.1671 c 31.5688,-0.9683 52.2198,38.1875 39.4008,57.8096 l -144.8335,200.2213 c -154.4111,233.3962 -247.536,250.271 -73.9681,308.0856 140,65 189.6967,159.0506 189.6967,300.0506 0,140 -64,236 -193,287 -54,22 -69,23 -421,26 -284,2 -347.2049,3.5833 -366.7472,-10.0253 z" />
            <path
               d="m 3989.6678,2856.633 -0.02,-520.0172 0.299,-560.7815 c 0.015,-27.1425 9.5218,-45.9522 44.8634,-45.9862 l 88.4273,-0.085 96.3776,0.4464 c 25.0246,0.1383 36.8807,18.5324 36.8803,44.5351 l -0.011,543.4133 1.171,525.9842 c 0.092,41.6071 -17.8855,58.8068 -47.126,58.9329 l -93.5554,0.4035 -88.3161,-0.4625 c -24.7858,-1.7281 -39.0148,-20.7758 -38.9906,-46.3828 z"
               id="path4202"
               inkscape:connector-curvature="0"
               sodipodi:nodetypes="ccssccscsscccc"
               style="fill:#ffffff;fill-opacity:1" />
            <path
               d="m 4551.6901,2857.5202 c 0,0 3.8978,-211.7716 2.1098,-593.5202 10.7747,-691.6998 9.4247,-641.2001 -72.7999,-707 -37,-33 -35.3751,-52.45 -8,-76.3499 18.3751,-14 34.3499,-10.3751 93.3499,8.6249 97.5003,36.8999 162.473,79.586 217.4479,191.7861 0,0 34.2605,60.9967 38.9328,235.1409 2.2791,84.9466 -0.6295,406.798 -0.6295,406.798 0.076,304.2935 1.177,358.4185 -2.8483,537.6278 0.6571,29.85 -22.9988,42.4336 -45.5163,43.1897 l -95.3797,0.7875 -80.4586,-1.4391 c -28.0745,-0.37 -45.9617,-15.325 -46.2081,-45.6457 z"
               id="path4204"
               inkscape:connector-curvature="0"
               sodipodi:nodetypes="ccccccscccccc"
               style="fill:#ffffff;fill-opacity:1" />
          </g>
        </g>
      </g>
    </g>
  </g>
</svg>
